<svg xmlns="http://www.w3.org/2000/svg" width="20" height="20" viewBox="0 0 1600.000000 1600.000000">
    <g transform="translate(0.000000,1600.000000) scale(0.100000,-0.100000)" stroke="none">
        <path fill="#a0a5aa" d="M4909 12832 c-175 -47 -370 -234 -538 -517 -72 -120 -173 -324 -220
            -441 l-32 -80 -369 -376 c-204 -207 -370 -381 -370 -388 0 -10 96 -192 157
            -296 l23 -42 -190 -133 c-104 -73 -190 -137 -190 -142 0 -5 27 -47 60 -94 33
            -46 60 -87 60 -92 0 -4 -110 -84 -244 -177 -135 -93 -242 -172 -238 -175 4 -4
            99 -25 212 -48 113 -23 277 -56 365 -74 l160 -33 3 -78 c3 -71 1 -77 -15 -73
            -45 13 -903 151 -907 146 -8 -8 31 -150 69 -249 170 -445 460 -772 860 -969
            139 -69 327 -137 346 -125 5 3 271 302 589 664 319 362 585 662 591 666 6 4
            -58 -85 -143 -197 -941 -1239 -1724 -2699 -2156 -4019 -256 -782 -387 -1436
            -447 -2238 l-6 -82 1300 0 c716 0 1301 1 1301 3 0 1 -36 109 -79 239 l-79 237
            111 98 c515 452 1031 966 1312 1307 164 200 297 408 347 542 50 136 13 496
            -98 936 -13 53 -24 103 -24 110 0 7 29 33 63 58 172 125 441 385 536 520 29
            41 66 101 81 133 16 32 31 53 35 47 10 -17 -13 -146 -46 -255 -78 -254 -215
            -501 -319 -573 -22 -15 -39 -31 -40 -37 0 -18 147 -309 196 -385 258 -404 610
            -741 991 -948 344 -187 682 -277 1178 -313 304 -23 1062 -13 1423 17 l72 6 0
            42 c0 141 37 453 98 831 l37 230 7 -150 c4 -82 15 -208 24 -280 66 -543 287
            -1119 629 -1641 l92 -141 -293 -274 c-162 -151 -294 -277 -294 -281 0 -5 599
            -8 1330 -8 732 0 1330 3 1330 7 0 4 -26 100 -57 215 l-57 208 48 397 c26 219
            65 542 87 718 21 176 46 379 54 450 9 72 18 144 21 162 6 31 -2 38 -517 480
            -288 246 -530 453 -537 459 -12 9 -2 46 56 225 169 512 237 818 237 1064 0
            173 -10 209 -94 337 -179 275 -609 572 -1026 710 -260 86 -388 103 -770 102
            -262 0 -307 -3 -465 -27 -178 -27 -402 -80 -498 -117 -50 -19 -53 -19 -59 -3
            -21 60 -144 357 -213 518 -472 1092 -926 1836 -1246 2041 -148 95 -461 108
            -1012 43 l-182 -22 -118 115 c-606 592 -1272 1124 -1689 1350 -274 149 -468
            200 -614 160z m-836 -1937 c148 -4 265 -11 260 -15 -12 -12 -351 -170 -364
            -170 -14 0 -199 179 -199 193 0 4 8 6 18 3 9 -2 138 -8 285 -11z"/>
        <path fill="#a0a5aa" d="M6870 5919 c0 -2 18 -71 40 -154 l39 -150 -31 -45 c-59 -84 -351
            -474 -464 -621 -165 -214 -266 -325 -711 -786 l-244 -252 159 -373 159 -373
            910 -3 911 -2 7 146 c5 88 4 149 -2 153 -5 3 -90 57 -189 120 -98 63 -180 115
            -182 117 -2 1 21 53 51 116 245 509 320 668 398 839 97 215 125 282 145 346
            l13 42 -57 26 c-80 37 -230 139 -347 237 -161 134 -424 404 -602 617 -1 2 -3
            2 -3 0z"/>
        <path fill="#a0a5aa" d="M8556 4588 c-10 -84 -26 -225 -36 -313 -10 -88 -29 -250 -42 -360
            -22 -197 -23 -201 -59 -255 -168 -255 -329 -502 -329 -506 0 -2 448 -4 995 -4
            l994 0 5 33 c3 17 13 136 21 262 l16 230 63 65 c34 36 157 165 274 286 l212
            221 -32 238 -33 237 -60 -6 c-162 -17 -597 -47 -827 -57 -368 -17 -803 10
            -1070 66 -38 8 -70 15 -72 15 -1 0 -10 -69 -20 -152z"/>
    </g>
</svg>
